# xmcd CD database file
#
# Track frame offsets:
#	150
#	16940
#	40970
#	55827
#	77760
#	95290
#	107702
#	124987
#	155072
#	180067
#	207347
#	235672
#	251115
#
# Disc length: 3545 seconds
#
# Revision: 1
# Processed by: cddbd v1.5.2PL0 Copyright (c) Steve Scherf et al.
# Submitted via: CDex 1.70beta2
#
DISCID=a20dd70d
DTITLE=世界宗教音楽ライブラリー - ルター派のミサ/バッハ
DYEAR=1999
DGENRE=World
TTITLE0=ミサ曲ヘ長調 BWV2337
TTITLE1=ミサ曲ヘ長調 BWV2337
TTITLE2=ミサ曲ヘ長調 BWV2337
TTITLE3=ミサ曲ヘ長調 BWV2337
TTITLE4=ミサ曲ヘ長調 BWV2337
TTITLE5=ミサ曲ヘ長調 BWV2337
TTITLE6=キリエ・イレイソン～キリスト、神の子羊よ BWV233a
TTITLE7=ミサ曲イ長調 BWV234
TTITLE8=ミサ曲イ長調 BWV234
TTITLE9=ミサ曲イ長調 BWV234
TTITLE10=ミサ曲イ長調 BWV234
TTITLE11=ミサ曲イ長調 BWV234
TTITLE12=ミサ曲イ長調 BWV234
EXTD=YEAR: 1999
EXTT0=
EXTT1=
EXTT2=
EXTT3=
EXTT4=
EXTT5=
EXTT6=
EXTT7=
EXTT8=
EXTT9=
EXTT10=
EXTT11=
EXTT12=
PLAYORDER=
